<mxfile host="app.diagrams.net" modified="2022-03-20T08:12:12.548Z" agent="5.0 (Windows NT 10.0; Win64; x64) AppleWebKit/537.36 (KHTML, like Gecko) Chrome/99.0.4844.74 Safari/537.36" etag="IQBw17whbVqEX19BSeD9" version="17.1.3" type="github">
  <diagram id="Ev3jNCpGY5MYl3MGNrWy" name="Page-1">
    <mxGraphModel dx="813" dy="454" grid="1" gridSize="10" guides="1" tooltips="1" connect="1" arrows="1" fold="1" page="1" pageScale="1" pageWidth="827" pageHeight="1169" math="0" shadow="0">
      <root>
        <mxCell id="0" />
        <mxCell id="1" parent="0" />
        <mxCell id="-GC0x0hV50jPYkFJGjJx-3" value="" style="shape=image;verticalLabelPosition=bottom;verticalAlign=top;aspect=fixed;imageAspect=0;image=data:image/jpeg,/9j/4AAQSkZJRgABAQAAAQABAAD//gAgQ29tcHJlc3NlZCBieSBqcGVnLXJlY29tcHJlc3MA//4AHkxFQUQgVGVjaG5vbG9naWVzIEluYy4gVjEuMDH/4gJASUNDX1BST0ZJTEUAAQEAAAIwQURCRQIQAABtbnRyUkdCIFhZWiAH0AAIAAsAEwAzADthY3NwQVBQTAAAAABub25lAAAAAAAAAAAAAAAAAAAAAAAA9tYAAQAAAADTLUFEQkUAAAAAAAAAAAAAAAAAAAAAAAAAAAAAAAAAAAAAAAAAAAAAAAAAAAAAAAAAAAAAAApjcHJ0AAAA/AAAADJkZXNjAAABMAAAAGt3dHB0AAABnAAAABRia3B0AAABsAAAABRyVFJDAAABxAAAAA5nVFJDAAAB1AAAAA5iVFJDAAAB5AAAAA5yWFlaAAAB9AAAABRnWFlaAAACCAAAABRiWFlaAAACHAAAABR0ZXh0AAAAAENvcHlyaWdodCAyMDAwIEFkb2JlIFN5c3RlbXMgSW5jb3Jwb3JhdGVkAAAAZGVzYwAAAAAAAAARQWRvYmUgUkdCICgxOTk4KQAAAAAAAAAAAAAAAAAAAAAAAAAAAAAAAAAAAAAAAAAAAAAAAAAAAAAAAAAAAAAAAAAAAAAAAAAAAAAAAAAAAAAAAAAAAAAAAAAAAAAAAAAAWFlaIAAAAAAAAPNRAAEAAAABFsxYWVogAAAAAAAAAAAAAAAAAAAAAGN1cnYAAAAAAAAAAQIzAABjdXJ2AAAAAAAAAAECMwAAY3VydgAAAAAAAAABAjMAAFhZWiAAAAAAAACcGAAAT6UAAAT8WFlaIAAAAAAAADSNAACgLAAAD5VYWVogAAAAAAAAJjEAABAvAAC+nP/bAIQABgYGBgcGBwgIBwoLCgsKDw4MDA4PFhAREBEQFiIVGRUVGRUiHiQeHB4kHjYqJiYqNj40MjQ+TERETF9aX3x8pwEGBgYGBwYHCAgHCgsKCwoPDgwMDg8WEBEQERAWIhUZFRUZFSIeJB4cHiQeNiomJio2PjQyND5MRERMX1pffHyn/8IAEQgB9AH0AwEiAAIRAQMRAf/EAB0AAQABBQEBAQAAAAAAAAAAAAAFAQIDBAYHCAn/2gAIAQEAAAAA+qQAAAAAAAAAAAAAAAAAAAAAAAAAAAAAAAAAAAAAAAAAAAAAAAAAAAAAAAAAAAAAAAAAAAAAAAAAAAAAAAAAAAAAAAAAAAAAAAAAAAAAAAAAAAAAAAAAAAAAAAAAAAAAAAAAAAAAAAAAAAAAAAAAAAAAAAAAAAAAAAAAAAAAAAAAAAAAAAAAAAAAAAAAAAAAAAAAAAAAAAAAAAAAAAAAAAAAAAAAAAAAAAAxwnPc/BQKUlpaVmZmQyAAAAAAAUied52Ai4WOUKVpUtySUxLy0tMTMtkAAAABo8zBc9z/AD+pSu/0chIbFIeExxegUqpWilaXZ+k9+lQAAAafhGPRmfPKK0svWqYbpKWw9BK4rMHKQ6iurC7nvXe9DcAAABGeVeL72LW3AFBjvLMORTNqwkFARNNzo+s73ofbJkAAAOO8r8Ciof1SI1M21vSGxQpSltLWfVhoOCjMdtmrdnp1k7D9F6F9XAAAHkfzJIc7zndelxXJx2rgwX7lb8uG23JfFxMbbRSlmtlpv7MnlN/7vlwAALfknyiM2tj6K1ozmI3U1sGHFjphZ4Ln9jW2LrVKW49XJmk5bLSp7B9agAAeBeIcR0/HfXUXuwdkFqaurra+DDTbp5Tv25NnZrdF6FmvbtZdqarXT2rvRvs8AAEB8K3bXG/SXVcVKX70bq62tr62vZk2/K4jYpuZtala4Of1stZC6apjj6THoP2mAADy75PryfTfTcpkxwkRLaerr4Nexk4LhbssXj2chVzmjkySFZq2D38E3u/oJUAAPPvkvntzB77E836JMb+3n19LV1MCB8Yz8rsTGrhFUbz+XJs78nrx29bJzf3sAAD5k8PhdrXksN/rfXZK3b27t7ddb5gvjtSf5/DS6zLYu5O9mmNvBoSGzd7n9QAAA+VPBpCGxTm5j0t/o+knoDju76+Q4nyvPoTHL1yXWacR1GO/WhtrTmtm+yu/ofTPvwAAPGvkS/FpY9vcl62aWls5Os6zc5Pm4yW5SX1Fmzpwc7m2/b/nzFr5ZPNdua+r9m+lAAAp8LeazsZa17JHf2ZHBg046yknrafSWx9Y+zZjJPbzfdHwbD79kjXfpo+h/aOQAAD488ZkI2orWvrve+cchJzMJz8ZuSUUzwlkpES977r+HITQlZAq+yvTgAAER8fcpA24irpPvCTRnnvnHjMFrSt2ldTQ3c0D0WDo/vPkflzyrRkZA7z7ZyAAAFnh3zfAWUZvSvc/ZAp8peCbm1ByTbxUxRfRaf0j9FOV848o8rtu94+m9kAAADkuNkPnP6z6gB538Ua2nK0pmz2Qc/q4/uvswx8zpdtUAAAAAAjfz01NObxq70ZJYtbL+gEwAAAAAAADD+e0TDdNguV2cFj6b+ggAAAAAAAHjXyDXPhvVHtH1qAAAAAAAAPLfjiD39mitMn3/NgAAAAAAABE+R+O+ddzxu9736D6QAAAAAAAAAYc3j8x6QAAAAAAAAAAAAAAAAAAAAAAAAAAAAAAAAAAAAAAAAAAAAAAAAAAAAAAAAAAAAAAAAAAAAAAAAAAAAAAAAAAAAAAAAAAAAAAAAAAAAAAAAAAAAAAAAAAAAAAAAAAAAAAAAAAAAAAAAAAAAAAAAAAAAAAAAAAAAAAAAAAAAAAAAAAAA//xAAbAQEAAgMBAQAAAAAAAAAAAAAAAwQCBQYHAf/aAAgBAhAAAAAAAAAAAAAAAAAAAAAAAAAAAAAAAAAAAAAAAAAAAAAAAAAAAAAAAAAAAAAAAAAAAAAAAAAAAOag2NqxNmAAABpuBtZ27E+ez3QAAAh8u+4a+SzLsPQ5AAABHzGv5bJh89I3wAAAKccNG1yePpAAAAD5BSjNyAAAADCOcAAAAAAAAAAAAAAAAAAAAAAAAAAAAAAAAAAAAAAAAAAAAAAAAAAAAAAAAAAAAAAAAAAH/8QAGQEBAAMBAQAAAAAAAAAAAAAAAAECAwQF/9oACAEDEAAAAAAAAAAAAAAAAAAAAAAAAAAAAAAAAAAAAAAAAAAAAAAAAAAAAAAAAAAAAAAAAAAAAAAAAAAA67ZUpEAAAAdHpUrStYxwAAAE+0XikZ+XAAAAns17CY8rmAAABe06V7Z8kAAAAtpJgAAAACZqAAAAAAAAAAAAAAAAAAAAAAAAAAAAAAAAAAAAAAAAAAAAAAAAAAAAAAAAAAAAAAAAAAD/xABHEAABAwIDBAYGCAQEBAcAAAABAAIDBBEFEiEGEzFBECIyUWFxFCBCgZGhIzNAQ1JicsEVUILRJDBEsRZTY6AlNHOSssLw/9oACAEBAAE/Af8AtRXPY3tOA89FLimHRdqqZfuGqk2koG9gSPPlZSbUO+6ph/Uf7KTaHEncHtZ+kJ2K17na1knxTcSr2m4qpPimY9ijPv7+bbpm0tYO1FE75Jm1I9uk+DlHtPQu7UUrfddR47hZ/wBRl/UCEyvoZAMlVH8U17HdlwPkf5ZcBS19FEOvVRj33Uu0OGM4Pc/9LVJtS37ulcfM2Um02IO7AjZ7ro1+MVF/pZj+kWCkhq+MkcvvuVw8Ff17q6utO5Bzm8HEeRsmV9bH2KqUf1JmO4oz/UX/AFAFM2mrm9pkT/dZR7Um3XpPg5RbUUTu3DM34FMx/C3ff5fMEKPEaCTs1UR99kySNw6r2nyN+i/2y6kqqaL6yZjfMgKTaDCWHL6UHO/C3VS7UUw+rp5HedgpNp6s9iCNvnclS43iknGpIH5QGqSeeTtzPd5noJPLohramn+rER/U25Q2hq7ZX0zCPymyi2gp2NymCZvjfMo8Xwt4IfNc/wDUZ/ZMGEzg3NM48svVTcIo5Qeo6P8AS/MqrCKWBuZ1ZkH5hdR4Zv77ipjksPEJ+FVzfu7+RBT6WpZ2oHj3Lhx/yrm/BXWiBI4EhfxSWDhWvZ4Zv2VLiu0M1vRoqiXxcwAfEqifUvpYjVRNZMR12tN7H7TUTMghkleeq1pJX8ZxirkEUMjGOeeroPmq/DcWgpt/WYwX9YARMFg4rCcNhxGodHM28Qbd2pF+5Y3h+GYfHBHS0kcbnEkkcbeav0X6Rm59F+nTuW7Z+EIAt7D3t8imVtfH2ap/v1TcbxMDK4xPHPq2UeIUzX5n4Wy/e1xUmOQzEfTVUH6QCFHiWHGIt9KbK/lvm2/ZRQtnf12UGX8jiCqqgoozZtJVu8Y9Qm4LHIzOJJIvCVoCqqaKC9quJ5/CDr6z6iGPtyNCkxSBoJaC63uCwmV+K1opWzx05I0Ltb+A8VBsdRf6mpnmPdfIPkqXCMMpLbijiae+1z8ei32mrpIKymkgmaSx41F7Kp2Qw9jHyMraiENFzrmHzU5rmXy1W9iB6u8uCqDG8ToRIYqYEO7XNVuPtrZw+cZHBtrWTaqnf2ZWoEHh0XV1f/Iza2sfUsEY2d37JpmA+uePJxTg9/blkd5uKaxjeDR0Pnij7cgCkxSmbwu75KTGJfYYB81JXVMnGQovKa5xBF9Cop3QODmGzgdHcwUdocZuD6fN55iqfajGg0sFfKSeZsf2WE7X41HvvTYd60RnJZtjn8bckzbtu7Gel15gFUFWKyjgqd25m8bmyu4q/wBmupsfwqCpdTyVID2i/h5eaxbaF9VG+KJuSE8SeJCqsSErjFDc/mWWtk7Ti0eJspcjSGiQuN1QYRGKZ2/beR3f7IUlIGOOQub5FZ6tnCcnzQr6odpjHfJDE2+1E4JtfSu9u3nomyxu4PB9/q3Vx3rO3vCzs/GPit4z8bfit7H/AMxvxW9j5Pb8eh88TO1IApMUp28LuUmLyew0D5qStqJOMhRcTz6SVe6AKAb3rKqVgLA74oVZbqD5JxLnEnmVR4xidGW7irkAHBpN2/NbN49iX8TbC8vnbUP6wPEHvCv9l2hxp1PekpzaQjru/CCmvz1kh7lUxCUAOeWs9oDmn1VLT3bCwe5S1Usl78Fs9hQmf6VMOqPqx3nvRux+qq4+Dk5iMfgjGe5ZPBbod37Ib1vZkePehVVY9sO8wjU5vrKa/kbIS0HtRSD4lf4M9h0f9V19F303xKvD+Km+azQfjpvgUH0/tSQe5pT6ugZwhDv6bJ2JW+qhjZ7lJWVEnGQok+ubkqwCJuomjgmMTNGlvj6lLUy0k8U8LrPjdmH9lQ1kVbSQVEZ0ewOt+32QmwWMVbKrEqiWM9QkBv8ATom1LIHzvdqc2gTpamqPh3IUscbC954LCcNkxWst2YmavPcO5BjYQxjG2DdLeCqY+DgE1uZhYU+Eg2KMaMZRjPciwrIUWFZSrFGMHi0LdN/AE2nB9gKtLWHdgC/NXKkkc8DN7IsswQueSt6xKB1QVlHyVtfP1ti6wxYtuC7qzMI97dR9kx/aaK9Th0Adn7L5OXkFJKI2OeeQVPH6RIXOHNSFlNCSOPJRRz1c7II7lz3f/isNw+DDqJsLLaavf3u70+upJZGNa45nkht2kZrcbJoDmlpWUscqiHg4DzRjRiRiRi8EYkYkYysh7luimwqpe2mhLuZ7PmnFzySoortUkYzAX80BE32U3XsxXV3tNsov3LO7u+SIa7i0J0DhqNel6AQCAUfEhch0unymwamua8XHHo2UgE2O0t3kZMzx45Rw+x4nVijoaif8LOr5ngpHH0sknU6nzVSySbJG3hxJV4KSLw+ZU9RLOc1rN5BbNYCaOD0idv08g4fhCxSOZzqcNhe+MFxeWHg7lpzUFE6nfFVPfK527dpIc1u8uy/7I18bD1hawGYjkTwb4lel073Eb0XzZff3JrmZct7oxoxnuRjRjRj8EYvBGLwW58EIUYQxpc7QDiq+Xfl7+XsjwTY9FdzRkYLlNpj7ZQjhj42W+BFmad6v6kjM48eSK59A43+Cd39/+6b2h0yXa8MPdcKQKE2eEeK2Vfkx6i145h8vse1zXnCbtOjZmlymgke4SDgOKdUsjiLr+7xX0tVJmdw+SocjMVoWZQbOvY6i6ZicntsafkmYhTniCCstI83aW3Ro4SLOYHeakwijcCAzLx1boR5J+D9jdyltreeUckaZw0sjC4cQjGjGjGjEt14LdeCEaxapbnFM3Ut1f/ZSt+jcohdo8k+SOPifcnVEj9GCyELzqSg0Dh6z75nXQPHoCbqC33hDiOhzsoJ+CznqA8nGyf2U0ahO4+5UhPpdNY/fM/3+x7TyCPBKrTtZW/Ep82VgCljhlNzofBMa1oGVUbZW4rBI5umfiswte6lxKii7Uwv4ap+0dOHDLC4jmeCiqX5Q5khsRom1s3OxQrWe0yyE0DuD1lHJGJp5I0zUaY96MDu5btbsLEqptFTGT2joweKY12rn6ucbuT2dR3kt9JkDGD3plKTq9btjLaKRwJ04evPGT1h7+gdDSRYoD6Qdx1HQ97mZC3iHX70WXMb8wu9xuO5OGiY3gncfcsJgkqMSo42NLjvWnTuBuT9j24xKpbNDRtNosokd+YqR94XO46KEmXgLFEPZoSnzyMLdNL6rflwsToiyN3h5KOmprHO99/kqKrp921m8Gg8k1wI06QSOBsm1Uw9q6bWfiZ8EKmB3O3mhldqHBFngnMYwFxs0AanuWLVrquobMPqg60Y8O9cdVWy5IrDi5UkfUGiDQFI/O49IBKc+JvaegGu7Jv03RHXcPFWsrHimqLs9DpXxEObzaQoWdc+CcOAUbdU46lbBw5q6rmPBkQb/AO77Ht1F/wCIxG3GD91mOR7O8Knj3cevHmpZHTS6dkIEtII7/cmT0snbgyn8hsvR6d31dRbweLI01S32cw726rOR2go6qRnYkI8lFjVWzi4O/Uo8djNt5ER5apuKULhffgeehU+P0zPq2OefgFPtBWv7BbGPDisJrX1VMHP7QNie9AJtRMzg8raOvqTRxwtsBLJZ3fZVTPoBb2VC7MwKSnkmqOtoxvBXZEzuAU1U+W7I9GoXsAehoLnAAapx4j5J7QQmPdG5E5mh/wAehoLiGgXJ0CrKKopaiSOoi3bwLlpQbnPhyRZcEJqj7PQewNMzr6dw8U1oY1AIdVpPRsF/5Wv6v3rdfd9j2wwp9TSsq4rl8AOYfkUjcrw4d6qpMrbDi5QR2arcVlQeeabKRwKFVIdHWePzC6/wj+1CWeLD+xXokbvqqkeT9FNSVzGEiO/i3VMkdlGYa2Wdp5KPctN9013mqTEI4NN3YeCZjNHzLh7l/F6D/m/IrFa6nnFPun5sr7lEiRhHgqV+hb3KSVkYzOT3y1Lvy8kImxRk216TUPgcCy2ZVL97GyfJlffr+I5FcQpR1lSm8ZHRAbTw/wDqs/8AkttsDcScUEvVORr2W+atZZxny+CkZ7QUDrnob3K10xikdwA6Nk6P0bBacnty3ld/V9jIuCsaipRilfDB2GyG3h3gKcu3wzcuCa8bvMuZ6XMPIpplHtJsx5hCRpTHuaeo4jyK9Kkd2wyT9Q1+Ky0T+MT2H8puPmvQ2n6qoYfB3VKfT1bOMTrd41Re8HUELfLfKN5yIvDJC7kRddeodmdw5KNgaFM4WA6X7oxZ830hfqPBCR72yNc6/wBHYKPsDyU3EKi59Ebg2SNzuAe0nyBWJUseJYPURMObew3jPjxarHnxU464ITXBwTWWkDhw59LZGcwnTfh6NnMEGLVThLcQRi7yOd/ZTWtYxrWiwaLAeA+xngtsMIfRYiauMfRTnN5P5hVQEjRIBqNHBU0ZdS+fBX1t8fUt6mzGAOxRz5Z8wpmaXHFz/DyVTsK7U01WPJ4/sqrZvGaa+alLx3s6y+mgdbrsPwTMQqW9rK8fmCjxOD7ymaPIArFaylkELYmDjcm1kLWVXazAoR1UdGHy6YxFm+kNm21UTxFM1+XMGnRF2bfO7/3TRYKbiFRjqE9F7LB45IcDoWNAztpm2vwvbmqx0wqajfi0u8dnHCzr6otzXuutGUyQEg/H1tkaVkGC07slny3e/wAe77LX0NPXUskEw6rvkfBY5sxWYe5zwM8P4woi3caeyFRhr95c6lPYWOIPu9bCKAYhiNPSl+UPdqfBUlNBS08UELMsbG2A6NFPR0lQLTQMePEXVVsfhE2sbHxH8p0VVsRWM1p6hjx3O6qxOgqaR5hnjyvAv36KJ/JVZ6zPJQizBdTyNa3Uq/Q6NzoZCPZ1KfNeCKPKBkJN+9TCN0rGsZlFgXDxR4J5u8qNuSAdGF4XPilUKaIgdW7ieTUxoYxjR7IAVVgGEVNTPPLTAySx5HH9x4rHtlqjCnB7JhJA51m37Q80/LctKyEcCopC7qu4+ps9g7sVrQCPoI9ZXf8A1Hmmsa1oaAABwH2YgEEEA3WLbFxTySTUUoic7iw9lYjs5jWGnM6mdkHts6w963j5I2Fw71Y93THHJK4MjYXO/C0XK/4Qxv0Tf7kZswtF7VitnNlo8NtU1BD6q2nczwHr7btIxdhtoYR/unDJIgxryHnknPDBmKaHSvzO6YoPSMzM+XmjDDTnRwll5DkPEpjMoNzcniVI6wULC94ClPAdGwVL1a2qI4kRt93HpxTB6LFImsqWu6t7FpsqfYTC4KuOYzSva03EZ7/FYvsbjMdTPNCxs8b3ud1NCL+ClpqumdaopZWfqaQs7e8K4WyOARVW9qq2nJYLCFrtAe82UUMULMkUbWNHJosPtVdgmF1rMs1KzzGh+Sp9icFhL87XytPBrz2VPsngnosrI6FmfIcpvrdM2Q2gff8AwgHm8LCsMgw+jghaxmdrBneBq53f/k7TYWyvw2Q/ewgvYf2T252qA6O8E52+k/KE0W6WcbK1kSpH5j4KCPdRlzuKJubq9ls/RCiwekiuL5M7rfifqfVsnMa8Wc0OHjqp8Ewift0EPubZQbOYJBJvGUMd/irC3263+VVzMhpp5JOy2MkjwshNne7S1ySPJTtIDiDYHioHBctT6nbGZoueYTo6h+mSwUVO2LrPNypH5/LoYx8j2MYLucbNHiVh9N6JRU0Ga+7jDSf5jJG2Rj2O1DgQVilA+hrZ6d33byB5cis29jLD2rKG+8ACcOqVfpBINwVvpO9FzjxPTs5so+mnpq+peM2S4itq157z/M9qdnJMRAqaYDfNbZzPxhTwyRPc1wLXNOoOhB8VTN0e7mSpX5G+J4JjLN8fX2RwI1dQK2dn0ETuoD7b/wCwVv5ptNgTcRpXPggZ6ULZSdLjuUsEtLO6OWJ8bx2mO0KmkO8Dvko5g4cfWaySRwZG0ue82a0cSVhsLoMPpInMDHMhaHNHI21/m1VRUdWzJUU8cg/MLqv2DwiouYHyQHwOYfNVew2K0Q3jctQ2/CO+ZGKcTCJ0b87jYNym9+5RbL4/JEXigcAOTiAT7lUU89PKYp4nxvHsuFiqHDq2vk3dLAXu58g3zKwnYdjSJMRfn/6LOHvKwjZmgwuaSZt3yOccrj7De4fzoxsLmuLG5m8CRqLrRY/st/FaxlQyqEdmZSMt+awHZ5mD74790rpLXuLDT/sC/wD/xAAqEAEAAgICAQQDAAICAwEAAAABABEhMUFRYRBxgZFAobFQwdHwIDCg8f/aAAgBAQABPxD/AOQ6/wDKWX6WcQmxe0D9y0CnktD32RVMul5/40HQrqO6dOh/Cf0z/wCysKE6oPr7h/q5qt5lgqvlrgujgHyV3ZJkh+wf5L95f+KSWvy6lkotlV9FxVH/ADJ9tQtnmDEaq3OEpiRXYifRGCiO0ybaILyU+hagwS/S5cByS13eSb2xtsMrl7tP4ZxI6BJ+4QHxxaoM8pwaz+ZAZk3gYflLr+YMEH4j/VSxC9l/HpRPy78MQQDLdOftmGiLpXPhqWMvTzaiFRFxIVtrzsoMhKur1eoaLQeaIwJg3R3e8JcYpXdRyPY7zdpEr3pLzvm2z4yxauXikJA6k1EnLUgN+yYKrO8ide9ONpAicJUu9Qdy9y+xl+gy5ebzBnYA03uCujB2RuIg5iF+yKfyDwU4DuBiTdfqnJZFzQegfyabHskGoPn4BULpTbRFyGxKkb1V4xXQshzjOtnFKjaXn1Xu/iIXYeqKl+hfEuIth9y4vV+5VMr7Q0uRK3NdcfmI0goOQln291efZY9ow1+7ix3c5LLpSAq9tKNPGpWWdRNX5oA+mKgO0Wn7EvzLl84JcGFr4VS/qDR9kKIl+aVbNhggGeRfyZIorr+VQoxVGseiz8iocwlY9yJyrcSDMPE7ohRq6tBj5aLFFQxVox4phCoJuB4Wl+4BaH2Yvj0aX6Lly5cuXLzUC/ZViD5lzEXKQfclBQj2P+krJ4dT9wGjDhhMqSuQyzMKWj4Uv6jrR34R1nRrlLm+PA0fqMbW3uDdm4vaauHfMQ0OR4Yh1/CkLIsGf0w5bfI3GhPEGW95hH4piqgrV12Sj+OsPdGW3mRQ+lfc3RMPDmhYsc724A8BFQrhS6L65YWBWay6Ah6kNNlTXKOCMxNJ02mL76IxAG/otJpK4oTMGXFqIvZ9kqMn7JR/zkSc/SiLT9Wf/m4O0p8BmyzJ3A1quFLgTVuKKIuwf7QJujwNH6iVqt3HcxKyKh2C/PUpN3Tg19y6RvNVt0zNDwXXvDGLRai9hWkjqoK3a5S8sqfiMdoUecOjyxlVc83bcB+cqrxt4IcjTFiEJUtBi4y2ezhl2RpphqJhwp3wx1cZOJmnIyjexHskd5X2Yb/G2Q+5+vUuMdl1G0edUCIVt8M1FOg+ePS/Dho+t4dwQ8qAUn2Av3Mv3ACy2unQ0fqKbXcZrR6LLiyrAmHeXq8EQguOjARSaDZMtPGJfPg3js1j1W4Yo4a2vCYYbTzgLtez+ICLQG1aCXfkLsBCUisPb5epm6lqBgIddN/fr3gJjhPBwDywGlcgwCWFgO/+Zv8AOa9owCkUY9uJauonhFZqPVKOiONqPEEStUOJ4kYTupTkGWGTxB9XXdx5phAFY/5gkIWL3YsUrUsuWOkfRYsqIgkUuBWZgTMRKVTQEi2y/S8X6Nl10Vob8Q2tGqecNfF1HPRHyzl4z3ChLY6X3DhpAcXyvBFEoL2O5MIto/XuTsJnKrJfUcyZGn2hJsDKGupuoZvomeF4ItYPeEMEetBkxFUx7xW04g89viIdVW1ebjmpkahHgP1gxSfKw2AE6xcUKw2Ag+E15Mxz8cFQ5pPRs+I4URE4SmMWgl8LCoF0By+IttiIpTMdIckNfR6Be2g2xlDXC5WOwobBx6BlTpcqD8M7nLU7xQW75RdrbHDo14YGoZNoFeSWkgaM7/3AWI0jHypCyM8yX1EbG++AeARiInIE0w2kUZSPBfB5YxsFsKRojdDBOkdcky6l5iFgbhzzFLqYudaeCIoISm4t/WChrggslW7rAS6o27BuUDVznK/EXRRy0wYUafQwQUhEIV2/5gSxKTFRLa6GWBcuhbPpDdcSPwhyuM1GLRGJhZcbEeZiHqW85xDSINqlvtkcF/gsxuEvi0FlJoNJxnoiQuhXZgbHXANDqAqC+BgYs8QHyqZMof3b+QsnXI0xqGW7N57zzGPtwTIVXpa5hiQ2FoEOL9QKgQKKZuE9BkpqO8RGsR9Kp0BHNILxsHiG16LJjuRGYbVi8NxZoujf3Lat3C6FDv1v0uvBWWEAM7YA+TDdx0g5uXPLS/8AYTMDsSEQUVNK2ywc3mNg5qC44jm5q9kIzCVpjjOT8K6cgfhm53avllFEG7eH3IHIo4cXEGFdhsDWYHYK7sr7l6L6Z/1Ay30qIOwiaXDRspzqHAPnSn9RwCLmmyVoJ4cMs2E8OJcCYzJZN8D4Srh8rjTZnqFhiL+n3/39iXlKjPKw0cZRBV5RSNszwtwDcF68yprDT3/4noUndGBv3gF3BObjhbHEMU8B6PGuoKpjxLldo90efeYp3LmDj4EQXHUujI6A/DJ6JBuI0wi9PcdRAy9RkBbrMqMKotzI16K1DsD7kWTU4CiDV9ABeHvAChHkbg4ZhJv/ANikBBAOyCoD7qVVvxFQUKezdy/YfCRDkCnAysuNF9Av7MMAVmUL8B3XMzDa9MAtzRb4jquwaPQiFBcXDJ4ITZ+DuaaZdwQ41TcrIUCI0WxIEUOSFcfUOPhQ8ehCBZqWI4fmPemoUdy5hcPEsfziCE/ZH+ExEWmnxI3OQDvxMfvz4+IgOqeZvoLU5XuSlO9ftU4lHCu5+5iFCEOQP6l2kE4SmMiv5IfUwXgxl+SGDv10/cakAWhYWwM0pdEEsmjf2Y/ovLjCMIij2NTFK8OZnv1giEIImRUFY5TMINBAuXmZSw2WPgeR5YQxaGX0fcrQcwFNoGnRHzHYmpjbQOSCV6FppANqtB8uIiIxcUEsuo1iNNIapSZPeNFHCRjg8+iGpg0rnTKOXolYMt2vK9xlWoLTYTct0Pnv4VhoeQtM1eEI8Ee+4D2mfTKZjkK0xL2OyEAWue4zbj4ahx4If7bjVaz4MHaa6Jf3kiAhsqNe5AixuspgAEMK2rq6HtBstt0xCKD59/6n/wCmRVccaShN5hiRtHzEGNKqKUTovK9EB7A4Q0DCr8+r2ilql0dRl6wCYH0+IJackETW4z2aIR1jSIe4Jdrq3wovAAAoMVMl4ch7jZ2G6hUHWoMzFV494JVTEISqwbrlmhXRllMaX5LA/hjYBEpHIxYyuPC3ARWYAPHcAxkNRylbZUpuMbYe4vQHwlw9Ur2QzdPTLcr2hKgGawv0UxHmXJ/VnH4M2fsxMsoeH9kVXxuxIu83MHNkeUbtUWM3FEeeoJUQ6Q4ABUQNsu2GoZS0oy+0JSlRwnGLQAgdANksq9IYaH3/AJ6NYjyFoNf0Qi4ALYgKpQNaDSPfMe9Bq76qbmLzUeqZNOvQURMI2MUan9MJECD6K8b2qeBDGCA4Cg/DyUSeKuSitHtA4faVBM3fZxCy5H0n/T0CIXUrxGzUFA2PcTwRKV0PCCizr/ei0DctcKhI9iL+mJFuQCx+O8Rf2SxTEY1EqoUKAHghFQyv1CpYVUV3nSK+iEO6Gb8R6hFDyeZiIDeg0L1K04CpkXhZSrA3/PRoXgz9ZlcTBbywpECuuy1qgEpt0uAOCbpC1WcD/czdepLq9YvTBY2qd2a/FWJxsTZafIi42vDDlxKU5KhiK1vvMvSa24T0r0JgmB455QFtQUxA+Dz29sqVFjm619sukPl36MsOHiVHZY7YFaRJeCwkJO8H+0Vobq6gMMtwcwsCaS/SpSgXvF8SqSIDae49MWuykx6XLhwYjWsWf30Znqu6BBZrOE9gqf8AdXpWPOW3lGHjipgQcPDFF5txxCtjFX66+N8Rc453jZ5oJ24BgAKA/GNgCkSxPJCQM1tmM3tOkOYaBHDTVnE4LWbjjaHohHoCGXwQfbhvzWrY6wq0ybuFf+Nal6/86GuNLj2mb3QLxHq0H2vUVZi8HRKr0oKLBZ1jhlVEaCn7IyLFbbVhK/B7wTF22+AmrxWam7leSezs/TUzTNOsuEifX0hsJJvFwNnUm3hm1CDljcYc31UxXZ7rRLUPAq3Lwc0AIXwfkoJUtdboal2jHit2YqrbM14yx4PlzF3AAHIT/wCkdFf0O57y5PHiIEtWvPEagcmPMI1VEdvo81pK+YEYA7KgA20G3qaO6aKyvcMlSyjwdRlXdxoVLAWFNGFWHIetelLuPOSAA/cyrXsHKb/mMAAAAwBx+dTqB/6Squt2wrIQk1TfJUPgmNgD/vzNTphWVAV6jTh8kbWgctX5InZWa4+ZXBDXRHVCgcD6LFPIWq0S103htUM/5EGwdvIlMM9FT3sELMA2B5rn3hYKruYo4LryQC0JdXXqIQJyMxVR8pGbdr0bvGfETGGv8rA/yKXEkLWxT1KWcAUzoOmCITYrYS5CnCP9y8tumVnAetegOu9Qlzc1i/sDD/JpM7anXLbY0AkHX5L34YcB4OhGy0TZ0RETFWXUv0uXDegJtGADmaR8MiKY/wAthTeK6ey5GdbPKH4gMg3Z0BCR7IB9BX1P4rMjODrIXGnTUZg1XKE6UwEJ71RJ9Q7NzuJn+YqPVWUj4DsldIzR3/JUVaRLEiQ5f/gK/8QAMhEAAgEDAQQGCgMBAAAAAAAAAQIDAAQRBRIhMWEUIzJAUXEGIkFCYoCBkaGxEzRScv/aAAgBAgEBPwD5qNU1gxXEcURGyGxIw8R7Kj1G6jcoZSRzpNVc9pVNLqUR7SkUt3bt7+POlkRuDqfr3rV9TW0hCIetcbuQ8aMkxleGb3h1ZIx2d1R3Bkg+OLcfKku6S7FLcjxoTjxFNeEDtn7mtML3GJWBCqSAcn1j3eeUQwyykZ2EZseQzU+pzXEzSS4JYk+BGRj8eypp4Lko0m1lBhSDjA8KWOMOWjnYE8doZzW3KnFCKW6pbuhe8600dOuP4PXyQMMOCgcSaiiSKNI0GFUYA7vNGJYpIycbaFc+YxUXorCD1twzclAWtZ0aGGOM2kEoKkhzvOaw6+8aErjnRaNu0g+1GGE8CR5VHaBpUDT7KE7zskkfStA0voFpmQddJvfkPYveXhlTfFK4+Ena/ddJuE7aK3llTUradcf2LcebKD+RT+j2lXA2oXZf+G2hUWh6bbrlbYSMP9nP73VqWi3nSpXhtHCMxICjIH2rSdOvE1K1aW0lCB8kspC/nvZAPEU1tG3KpNOJO0CCfHgaxfQ8Hcjn64o6hcqMGGNvqV/eat9TuJrlImsWUHOX2gwAHf2jRu0oNR20Ub7SjG7HzJ//xAAmEQACAQIFBAIDAAAAAAAAAAABAgADERITIUFRBDEyQGGAQqGx/9oACAEDAQE/APtRRoXUseNIaSEdoaI2hpHmYG4hBG3tUKONrnxEsLXGx1hQYvgwpMEKzCZgHErWXT11GJlHJi0lVQFgVl8YS24vLCFIUmCVTlrihJJJPrqbMDwYesbZbShXZicbj4gM0mvM1jNYGw1nU1sx9Ow9kFT3AmBD2NoM1PFv3B1VZdGjdRVbu9pS6ingAaoLyvWQ0nCuL22PuB2gq8wZbHsP5MpD+REaioUtmA22t79yN4XJFj9k/wD/2Q==;imageBorder=default;strokeWidth=0.5;" vertex="1" parent="1">
          <mxGeometry x="120" y="430" width="70" height="70" as="geometry" />
        </mxCell>
        <mxCell id="-GC0x0hV50jPYkFJGjJx-4" value="" style="rounded=1;whiteSpace=wrap;html=1;sketch=0;strokeWidth=0.5;" vertex="1" parent="1">
          <mxGeometry x="240" y="365" width="470" height="200" as="geometry" />
        </mxCell>
      </root>
    </mxGraphModel>
  </diagram>
</mxfile>
